<svg width="31" height="31" viewBox="0 0 31 31" fill="none" xmlns="http://www.w3.org/2000/svg">
<path fill-rule="evenodd" clip-rule="evenodd" d="M23.8743 25.5623L23.8752 25.5601L23.8977 25.5039L27.7711 5.97507V5.91164C27.7711 5.42507 27.5913 5.00029 27.2001 4.7455C26.8577 4.52248 26.464 4.50659 26.188 4.52754C25.8961 4.5497 25.6208 4.62257 25.4302 4.68323C25.3322 4.71444 25.2501 4.7445 25.1914 4.76725C25.162 4.77866 25.1381 4.78834 25.1207 4.79556L25.1037 4.80274L3.50725 13.2747L3.50131 13.2768C3.48965 13.2811 3.47422 13.2868 3.45559 13.2941C3.41845 13.3085 3.36789 13.3292 3.3085 13.3561C3.19189 13.409 3.03077 13.4906 2.86737 13.6024C2.58986 13.7925 2.06142 14.2424 2.15065 14.9557C2.22456 15.5465 2.63182 15.9217 2.90639 16.116C3.05358 16.2202 3.19438 16.2953 3.2975 16.3443C3.34974 16.3692 3.39412 16.3883 3.42717 16.4017C3.44374 16.4085 3.4576 16.4139 3.46832 16.4179L3.48204 16.4231L3.49081 16.4263L7.26925 17.6984C7.2565 17.9354 7.28001 18.1771 7.34288 18.4156L9.23554 25.5952C9.45995 26.4465 10.2301 27.0395 11.1104 27.0389C11.8996 27.0383 12.5994 26.5609 12.8967 25.8486L15.8517 22.6891L20.9266 26.5799L20.9987 26.6114C21.4598 26.8126 21.8906 26.8764 22.2845 26.8226C22.6778 26.7688 22.9903 26.6039 23.2251 26.4161C23.4561 26.2312 23.6145 26.0226 23.714 25.8656C23.7646 25.7858 23.8023 25.7157 23.8285 25.6629C23.8416 25.6364 23.852 25.6139 23.8597 25.5965L23.8695 25.574L23.8729 25.5657L23.8743 25.5623ZM9.21631 17.9217C9.1733 17.7586 9.24083 17.5863 9.38328 17.4958L22.1992 9.35716C22.1992 9.35716 22.953 8.89953 22.9261 9.35716C22.9261 9.35716 23.0606 9.43798 22.6567 9.81479C22.2735 10.1727 13.5224 18.6215 12.6369 19.4765C12.5858 19.5258 12.5553 19.5824 12.5373 19.6512L11.109 25.1013L9.21631 17.9217Z" fill="white"/>
</svg>
