<svg width="31" height="31" viewBox="0 0 31 31" fill="none" xmlns="http://www.w3.org/2000/svg">
<path d="M12.6806 9.62804L12.6809 9.6287C12.8495 10.0044 13.1298 10.687 13.3544 11.234L13.3579 11.2424C13.4463 11.4577 13.5262 11.6524 13.5886 11.8022C13.6198 11.8772 13.646 11.9397 13.6664 11.9872C13.6766 12.011 13.6849 12.03 13.6913 12.0443C13.6981 12.0594 13.7007 12.0647 13.7004 12.0641C13.8192 12.3008 13.9329 12.667 13.7284 13.0861L12.6806 9.62804ZM12.6806 9.62804C12.5317 9.29751 12.3462 9.05401 12.0968 8.90949C11.8571 8.77052 11.6217 8.76451 11.5019 8.76145C11.4985 8.76136 11.4952 8.76128 11.492 8.76119C11.2924 8.75464 11.0627 8.75464 10.8435 8.75464H10.8382C10.5001 8.75464 10.0002 8.8785 9.58341 9.32797M12.6806 9.62804L13.7283 13.0862L13.6929 13.1595L13.6929 13.1595L13.6888 13.1681C13.6009 13.3503 13.5146 13.5295 13.3239 13.7486L13.3238 13.7487C13.2684 13.8122 13.2099 13.883 13.1464 13.9596L13.1367 13.9713C13.0342 14.0953 12.9121 14.2428 12.8012 14.3533L12.8009 14.3535C12.7802 14.3742 12.7639 14.3905 12.7492 14.406C12.7435 14.412 12.7384 14.4175 12.7339 14.4224C12.9163 14.7368 13.5553 15.77 14.486 16.5948L14.4869 16.5955C15.4914 17.4898 16.359 17.8642 16.81 18.0588L16.8112 18.0593L16.6131 18.5183L16.8112 18.0593L16.8212 18.0636C16.9036 18.0991 16.9879 18.1355 17.0544 18.1686M17.0544 18.1686L16.8328 18.6138L17.0543 18.1685C17.0543 18.1685 17.0543 18.1686 17.0544 18.1686ZM17.0544 18.1686C17.1059 18.1942 17.1426 18.2083 17.1671 18.2159M17.1671 18.2159C17.1486 18.2363 17.1411 18.2399 17.1453 18.2373C17.1531 18.2325 17.1689 18.2259 17.187 18.2237C17.1895 18.2234 17.1916 18.2233 17.1933 18.2232C17.1933 18.2232 17.1933 18.2232 17.1933 18.2232C17.1967 18.2231 17.1984 18.2232 17.1982 18.2232C17.1981 18.2232 17.1962 18.223 17.1923 18.2223C17.1923 18.2223 17.1923 18.2223 17.1922 18.2223C17.1895 18.2218 17.1858 18.221 17.181 18.2198C17.1769 18.2187 17.1723 18.2174 17.1671 18.2159ZM17.1671 18.2159C17.1695 18.2133 17.172 18.2104 17.1747 18.2072L17.1748 18.2072C17.3764 17.9731 17.9875 17.2599 18.1922 16.9583M18.1922 16.9583C18.1915 16.9594 18.1908 16.9605 18.1901 16.9616L18.608 17.2361L18.1938 16.9559C18.1933 16.9567 18.1928 16.9575 18.1922 16.9583ZM18.1922 16.9583C18.3544 16.7128 18.5797 16.5265 18.8897 16.49C19.1472 16.4596 19.3879 16.5492 19.5303 16.6023L19.5304 16.6023C19.7111 16.6698 20.2241 16.9125 20.7002 17.1417C21.1906 17.3778 21.6846 17.6205 21.853 17.7042L21.853 17.7043C21.9149 17.7351 21.9732 17.763 22.0304 17.7905L22.0441 17.797C22.1484 17.847 22.2655 17.9031 22.364 17.9633C22.4663 18.0258 22.6041 18.1246 22.6991 18.2846L22.2702 18.5393L22.6992 18.2847C22.7835 18.4268 22.8034 18.5965 22.8114 18.6969C22.8214 18.8241 22.8194 18.9723 22.8057 19.1326C22.7781 19.4544 22.7005 19.8555 22.5488 20.2839L22.5476 20.2874C22.349 20.8354 21.8214 21.2908 21.3483 21.5955C20.8688 21.9044 20.2974 22.1525 19.8753 22.1921C19.8249 22.1968 19.7736 22.203 19.713 22.2103L19.653 21.7139L19.713 22.2103C19.4097 22.247 19.0373 22.2909 18.4038 22.1846C17.7888 22.0815 16.9385 21.8393 15.6518 21.3328C12.3743 20.044 10.2359 16.8829 9.80757 16.2497L9.80181 16.2412L10.2159 15.961L9.80181 16.2412L9.76169 16.1821C9.75482 16.172 9.75078 16.1663 9.74879 16.1634C9.74762 16.1618 9.74715 16.1611 9.74722 16.1612L9.74047 16.1522L9.74044 16.1521L9.74037 16.1521C9.63976 16.0174 9.28086 15.5372 8.94654 14.8765C8.61559 14.2225 8.28703 13.35 8.28703 12.4346C8.28703 10.7022 9.15434 9.7818 9.52642 9.38855L9.52643 9.38855C9.54874 9.36496 9.56716 9.34549 9.58341 9.32797M9.58341 9.32797L9.95001 9.66797L9.58341 9.32797ZM9.63864 26.1961C9.52713 26.1357 9.39684 26.1199 9.27414 26.1519L3.32299 27.7064C3.31881 27.7075 3.31669 27.7074 3.31621 27.7074L3.31481 27.7072C3.31363 27.7069 3.31045 27.7055 3.30691 27.7019C3.30338 27.6984 3.30206 27.6952 3.30173 27.694L3.30155 27.6926C3.30154 27.6921 3.30156 27.69 3.30271 27.6858L4.89225 21.916C4.92785 21.7868 4.91007 21.6486 4.84288 21.5326C3.76012 19.6631 3.19063 17.5432 3.19141 15.3856V15.3854C3.19141 8.60458 8.74147 3.08325 15.5537 3.08325C18.8656 3.08325 21.9656 4.36646 24.2998 6.6898C26.6335 9.01265 27.9161 12.1032 27.9161 15.3918C27.9161 22.1725 22.3661 27.6938 15.5538 27.6938H15.5474C13.4776 27.6938 11.4444 27.1742 9.63864 26.1961Z" fill="white" stroke="white" stroke-linejoin="round"/>
</svg>
